<?xml version="1.0" encoding="UTF-8" standalone="no"?>
<!DOCTYPE svg PUBLIC "-//W3C//DTD SVG 1.1//EN"
 "http://www.w3.org/Graphics/SVG/1.1/DTD/svg11.dtd">
<!-- Generated by graphviz version 13.1.0 (20250701.0955)
 -->
<!-- Title: mcp3421_shot_init Pages: 1 -->
<svg width="288pt" height="418pt"
 viewBox="0.00 0.00 288.00 418.00" xmlns="http://www.w3.org/2000/svg" xmlns:xlink="http://www.w3.org/1999/xlink">
<g id="graph0" class="graph" transform="scale(1 1) rotate(0) translate(4 414)">
<title>mcp3421_shot_init</title>
<!-- Node1 -->
<g id="Node000001" class="node">
<title>Node1</title>
<g id="a_Node000001"><a xlink:title="shot example init">
<polygon fill="#999999" stroke="#666666" points="97.75,-218 0,-218 0,-198 97.75,-198 97.75,-218"/>
<text xml:space="preserve" text-anchor="middle" x="48.88" y="-204.5" font-family="Helvetica,sans-Serif" font-size="10.00">mcp3421_shot_init</text>
</a>
</g>
</g>
<!-- Node2 -->
<g id="Node000002" class="node">
<title>Node2</title>
<g id="a_Node000002"><a xlink:href="group__mcp3421__base__driver.html#ga51a07faea3fa4c1e02d99b5ec324d789" target="_top" xlink:title="close the chip">
<polygon fill="white" stroke="#666666" points="248.75,-410 164.5,-410 164.5,-390 248.75,-390 248.75,-410"/>
<text xml:space="preserve" text-anchor="middle" x="206.62" y="-396.5" font-family="Helvetica,sans-Serif" font-size="10.00">mcp3421_deinit</text>
</a>
</g>
</g>
<!-- Node1&#45;&gt;Node2 -->
<g id="edge1_Node000001_Node000002" class="edge">
<title>Node1&#45;&gt;Node2</title>
<g id="a_edge1_Node000001_Node000002"><a xlink:title=" ">
<path fill="none" stroke="#63b8ff" d="M51.78,-218.43C57.86,-248.57 79.64,-336.44 133.75,-381 139.51,-385.74 146.32,-389.31 153.43,-391.99"/>
<polygon fill="#63b8ff" stroke="#63b8ff" points="152.31,-395.31 162.9,-394.97 154.41,-388.63 152.31,-395.31"/>
</a>
</g>
</g>
<!-- Node3 -->
<g id="Node000003" class="node">
<title>Node3</title>
<g id="a_Node000003"><a xlink:href="group__mcp3421__base__driver.html#ga50777bf844fe70341d87b775556d14d4" target="_top" xlink:title="initialize the chip">
<polygon fill="white" stroke="#666666" points="243.5,-372 169.75,-372 169.75,-352 243.5,-352 243.5,-372"/>
<text xml:space="preserve" text-anchor="middle" x="206.62" y="-358.5" font-family="Helvetica,sans-Serif" font-size="10.00">mcp3421_init</text>
</a>
</g>
</g>
<!-- Node1&#45;&gt;Node3 -->
<g id="edge2_Node000001_Node000003" class="edge">
<title>Node1&#45;&gt;Node3</title>
<g id="a_edge2_Node000001_Node000003"><a xlink:title=" ">
<path fill="none" stroke="#63b8ff" d="M53.25,-218.31C62.1,-243.68 88.49,-309.54 133.75,-343 140.97,-348.34 149.58,-352.18 158.29,-354.94"/>
<polygon fill="#63b8ff" stroke="#63b8ff" points="157.25,-358.29 167.81,-357.51 159.07,-351.53 157.25,-358.29"/>
</a>
</g>
</g>
<!-- Node4 -->
<g id="Node000004" class="node">
<title>Node4</title>
<g id="a_Node000004"><a xlink:href="group__mcp3421__interface__driver.html#gaf88e783829ce959c654d21129a1d2cf6" target="_top" xlink:title="interface print format data">
<polygon fill="white" stroke="#666666" points="271.62,-334 141.62,-334 141.62,-302 271.62,-302 271.62,-334"/>
<text xml:space="preserve" text-anchor="start" x="149.62" y="-320.5" font-family="Helvetica,sans-Serif" font-size="10.00">mcp3421_interface_debug</text>
<text xml:space="preserve" text-anchor="middle" x="206.62" y="-308.5" font-family="Helvetica,sans-Serif" font-size="10.00">_print</text>
</a>
</g>
</g>
<!-- Node1&#45;&gt;Node4 -->
<g id="edge3_Node000001_Node000004" class="edge">
<title>Node1&#45;&gt;Node4</title>
<g id="a_edge3_Node000001_Node000004"><a xlink:title=" ">
<path fill="none" stroke="#63b8ff" d="M57.51,-218.4C71.01,-236.1 100.8,-272.18 133.75,-293 135.63,-294.19 137.58,-295.33 139.58,-296.43"/>
<polygon fill="#63b8ff" stroke="#63b8ff" points="138,-299.55 148.52,-300.85 141.1,-293.28 138,-299.55"/>
</a>
</g>
</g>
<!-- Node5 -->
<g id="Node000005" class="node">
<title>Node5</title>
<g id="a_Node000005"><a xlink:href="group__mcp3421__interface__driver.html#gad1922115c9ebdde0134657d21545de27" target="_top" xlink:title="interface delay ms">
<polygon fill="white" stroke="#666666" points="279.5,-284 133.75,-284 133.75,-264 279.5,-264 279.5,-284"/>
<text xml:space="preserve" text-anchor="middle" x="206.62" y="-270.5" font-family="Helvetica,sans-Serif" font-size="10.00">mcp3421_interface_delay_ms</text>
</a>
</g>
</g>
<!-- Node1&#45;&gt;Node5 -->
<g id="edge4_Node000001_Node000005" class="edge">
<title>Node1&#45;&gt;Node5</title>
<g id="a_edge4_Node000001_Node000005"><a xlink:title=" ">
<path fill="none" stroke="#63b8ff" d="M65.66,-218.45C82.09,-228.93 108.84,-244.92 133.75,-255 138.38,-256.88 143.26,-258.62 148.2,-260.23"/>
<polygon fill="#63b8ff" stroke="#63b8ff" points="147.02,-263.52 157.6,-263.09 149.05,-256.83 147.02,-263.52"/>
</a>
</g>
</g>
<!-- Node6 -->
<g id="Node000006" class="node">
<title>Node6</title>
<g id="a_Node000006"><a xlink:href="group__mcp3421__interface__driver.html#ga320975a06dc61a79e438f9ac25bd4d14" target="_top" xlink:title="interface iic bus deinit">
<polygon fill="white" stroke="#666666" points="263.38,-246 149.88,-246 149.88,-214 263.38,-214 263.38,-246"/>
<text xml:space="preserve" text-anchor="start" x="157.88" y="-232.5" font-family="Helvetica,sans-Serif" font-size="10.00">mcp3421_interface_iic</text>
<text xml:space="preserve" text-anchor="middle" x="206.62" y="-220.5" font-family="Helvetica,sans-Serif" font-size="10.00">_deinit</text>
</a>
</g>
</g>
<!-- Node1&#45;&gt;Node6 -->
<g id="edge5_Node000001_Node000006" class="edge">
<title>Node1&#45;&gt;Node6</title>
<g id="a_edge5_Node000001_Node000006"><a xlink:title=" ">
<path fill="none" stroke="#63b8ff" d="M97.88,-214.78C110.65,-216.59 124.7,-218.57 138.3,-220.49"/>
<polygon fill="#63b8ff" stroke="#63b8ff" points="137.7,-223.94 148.09,-221.87 138.68,-217.01 137.7,-223.94"/>
</a>
</g>
</g>
<!-- Node7 -->
<g id="Node000007" class="node">
<title>Node7</title>
<g id="a_Node000007"><a xlink:href="group__mcp3421__interface__driver.html#ga7c90e1328b4b1dfd16c0eb80b08873de" target="_top" xlink:title="interface iic bus init">
<polygon fill="white" stroke="#666666" points="272.38,-196 140.88,-196 140.88,-176 272.38,-176 272.38,-196"/>
<text xml:space="preserve" text-anchor="middle" x="206.62" y="-182.5" font-family="Helvetica,sans-Serif" font-size="10.00">mcp3421_interface_iic_init</text>
</a>
</g>
</g>
<!-- Node1&#45;&gt;Node7 -->
<g id="edge6_Node000001_Node000007" class="edge">
<title>Node1&#45;&gt;Node7</title>
<g id="a_edge6_Node000001_Node000007"><a xlink:title=" ">
<path fill="none" stroke="#63b8ff" d="M97.88,-201.22C107.89,-199.8 118.69,-198.28 129.44,-196.76"/>
<polygon fill="#63b8ff" stroke="#63b8ff" points="129.68,-200.26 139.09,-195.4 128.7,-193.33 129.68,-200.26"/>
</a>
</g>
</g>
<!-- Node8 -->
<g id="Node000008" class="node">
<title>Node8</title>
<g id="a_Node000008"><a xlink:href="group__mcp3421__interface__driver.html#gacface50590e569b4dab7f37c00cbc053" target="_top" xlink:title="interface iic bus read command">
<polygon fill="white" stroke="#666666" points="263.38,-158 149.88,-158 149.88,-126 263.38,-126 263.38,-158"/>
<text xml:space="preserve" text-anchor="start" x="157.88" y="-144.5" font-family="Helvetica,sans-Serif" font-size="10.00">mcp3421_interface_iic</text>
<text xml:space="preserve" text-anchor="middle" x="206.62" y="-132.5" font-family="Helvetica,sans-Serif" font-size="10.00">_read_cmd</text>
</a>
</g>
</g>
<!-- Node1&#45;&gt;Node8 -->
<g id="edge7_Node000001_Node000008" class="edge">
<title>Node1&#45;&gt;Node8</title>
<g id="a_edge7_Node000001_Node000008"><a xlink:title=" ">
<path fill="none" stroke="#63b8ff" d="M69.56,-197.54C86.37,-188.82 111.31,-176.35 133.75,-167 137.51,-165.43 141.4,-163.88 145.35,-162.37"/>
<polygon fill="#63b8ff" stroke="#63b8ff" points="146.28,-165.75 154.42,-158.97 143.83,-159.2 146.28,-165.75"/>
</a>
</g>
</g>
<!-- Node9 -->
<g id="Node000009" class="node">
<title>Node9</title>
<g id="a_Node000009"><a xlink:href="group__mcp3421__interface__driver.html#ga7ed51ff8921c4f1a2c498c53d7ebdae4" target="_top" xlink:title="interface iic bus write command">
<polygon fill="white" stroke="#666666" points="263.38,-108 149.88,-108 149.88,-76 263.38,-76 263.38,-108"/>
<text xml:space="preserve" text-anchor="start" x="157.88" y="-94.5" font-family="Helvetica,sans-Serif" font-size="10.00">mcp3421_interface_iic</text>
<text xml:space="preserve" text-anchor="middle" x="206.62" y="-82.5" font-family="Helvetica,sans-Serif" font-size="10.00">_write_cmd</text>
</a>
</g>
</g>
<!-- Node1&#45;&gt;Node9 -->
<g id="edge8_Node000001_Node000009" class="edge">
<title>Node1&#45;&gt;Node9</title>
<g id="a_edge8_Node000001_Node000009"><a xlink:title=" ">
<path fill="none" stroke="#63b8ff" d="M56.71,-197.73C69.63,-179.08 99.43,-139.5 133.75,-117 135.57,-115.8 137.46,-114.66 139.39,-113.56"/>
<polygon fill="#63b8ff" stroke="#63b8ff" points="140.71,-116.82 148.04,-109.17 137.54,-110.58 140.71,-116.82"/>
</a>
</g>
</g>
<!-- Node10 -->
<g id="Node000010" class="node">
<title>Node10</title>
<g id="a_Node000010"><a xlink:href="group__mcp3421__base__driver.html#ga11b5d95c04a3bce73d57e2e2f8f4797b" target="_top" xlink:title="set the adc bit">
<polygon fill="white" stroke="#666666" points="262.25,-58 151,-58 151,-38 262.25,-38 262.25,-58"/>
<text xml:space="preserve" text-anchor="middle" x="206.62" y="-44.5" font-family="Helvetica,sans-Serif" font-size="10.00">mcp3421_set_adc_bit</text>
</a>
</g>
</g>
<!-- Node1&#45;&gt;Node10 -->
<g id="edge9_Node000001_Node000010" class="edge">
<title>Node1&#45;&gt;Node10</title>
<g id="a_edge9_Node000001_Node000010"><a xlink:title=" ">
<path fill="none" stroke="#63b8ff" d="M52.99,-197.63C61.39,-171.43 87.14,-102.16 133.75,-67 135.8,-65.45 137.97,-64.03 140.22,-62.73"/>
<polygon fill="#63b8ff" stroke="#63b8ff" points="141.72,-65.89 149.18,-58.37 138.66,-59.59 141.72,-65.89"/>
</a>
</g>
</g>
<!-- Node11 -->
<g id="Node000011" class="node">
<title>Node11</title>
<g id="a_Node000011"><a xlink:href="group__mcp3421__base__driver.html#ga0920dbacf30432d4239b5de9cbe3a211" target="_top" xlink:title="set the adc pga">
<polygon fill="white" stroke="#666666" points="254.38,-20 158.88,-20 158.88,0 254.38,0 254.38,-20"/>
<text xml:space="preserve" text-anchor="middle" x="206.62" y="-6.5" font-family="Helvetica,sans-Serif" font-size="10.00">mcp3421_set_pga</text>
</a>
</g>
</g>
<!-- Node1&#45;&gt;Node11 -->
<g id="edge10_Node000001_Node000011" class="edge">
<title>Node1&#45;&gt;Node11</title>
<g id="a_edge10_Node000001_Node000011"><a xlink:title=" ">
<path fill="none" stroke="#63b8ff" d="M51.59,-197.65C57.23,-166.91 78.16,-75.4 133.75,-29 138.1,-25.37 143.07,-22.43 148.32,-20.04"/>
<polygon fill="#63b8ff" stroke="#63b8ff" points="149.15,-23.47 157.25,-16.65 146.66,-16.93 149.15,-23.47"/>
</a>
</g>
</g>
</g>
</svg>
