<?xml version="1.0" encoding="UTF-8" standalone="no"?>
<!DOCTYPE svg PUBLIC "-//W3C//DTD SVG 1.1//EN"
 "http://www.w3.org/Graphics/SVG/1.1/DTD/svg11.dtd">
<!-- Generated by graphviz version 13.1.0 (20250701.0955)
 -->
<!-- Title: mcp3421_basic_init Pages: 1 -->
<svg width="303pt" height="456pt"
 viewBox="0.00 0.00 303.00 456.00" xmlns="http://www.w3.org/2000/svg" xmlns:xlink="http://www.w3.org/1999/xlink">
<g id="graph0" class="graph" transform="scale(1 1) rotate(0) translate(4 452)">
<title>mcp3421_basic_init</title>
<!-- Node1 -->
<g id="Node000001" class="node">
<title>Node1</title>
<g id="a_Node000001"><a xlink:title="basic example init">
<polygon fill="#999999" stroke="#666666" points="102.25,-234 0,-234 0,-214 102.25,-214 102.25,-234"/>
<text xml:space="preserve" text-anchor="middle" x="51.12" y="-220.5" font-family="Helvetica,sans-Serif" font-size="10.00">mcp3421_basic_init</text>
</a>
</g>
</g>
<!-- Node2 -->
<g id="Node000002" class="node">
<title>Node2</title>
<g id="a_Node000002"><a xlink:href="group__mcp3421__base__driver.html#ga51a07faea3fa4c1e02d99b5ec324d789" target="_top" xlink:title="close the chip">
<polygon fill="white" stroke="#666666" points="258.88,-448 174.62,-448 174.62,-428 258.88,-428 258.88,-448"/>
<text xml:space="preserve" text-anchor="middle" x="216.75" y="-434.5" font-family="Helvetica,sans-Serif" font-size="10.00">mcp3421_deinit</text>
</a>
</g>
</g>
<!-- Node1&#45;&gt;Node2 -->
<g id="edge1_Node000001_Node000002" class="edge">
<title>Node1&#45;&gt;Node2</title>
<g id="a_edge1_Node000001_Node000002"><a xlink:title=" ">
<path fill="none" stroke="#63b8ff" d="M53.49,-234.37C58.33,-266.99 77.84,-368.36 138.25,-419 145.42,-425.01 154.2,-429.17 163.24,-432.04"/>
<polygon fill="#63b8ff" stroke="#63b8ff" points="162.29,-435.41 172.85,-434.56 164.06,-428.64 162.29,-435.41"/>
</a>
</g>
</g>
<!-- Node3 -->
<g id="Node000003" class="node">
<title>Node3</title>
<g id="a_Node000003"><a xlink:href="group__mcp3421__base__driver.html#ga50777bf844fe70341d87b775556d14d4" target="_top" xlink:title="initialize the chip">
<polygon fill="white" stroke="#666666" points="253.62,-410 179.88,-410 179.88,-390 253.62,-390 253.62,-410"/>
<text xml:space="preserve" text-anchor="middle" x="216.75" y="-396.5" font-family="Helvetica,sans-Serif" font-size="10.00">mcp3421_init</text>
</a>
</g>
</g>
<!-- Node1&#45;&gt;Node3 -->
<g id="edge2_Node000001_Node000003" class="edge">
<title>Node1&#45;&gt;Node3</title>
<g id="a_edge2_Node000001_Node000003"><a xlink:title=" ">
<path fill="none" stroke="#63b8ff" d="M54.66,-234.34C62.16,-262.59 86.96,-341.62 138.25,-381 146.98,-387.7 157.75,-392.07 168.45,-394.91"/>
<polygon fill="#63b8ff" stroke="#63b8ff" points="167.5,-398.29 178.02,-397.03 169.01,-391.45 167.5,-398.29"/>
</a>
</g>
</g>
<!-- Node4 -->
<g id="Node000004" class="node">
<title>Node4</title>
<g id="a_Node000004"><a xlink:href="group__mcp3421__interface__driver.html#gaf88e783829ce959c654d21129a1d2cf6" target="_top" xlink:title="interface print format data">
<polygon fill="white" stroke="#666666" points="281.75,-372 151.75,-372 151.75,-340 281.75,-340 281.75,-372"/>
<text xml:space="preserve" text-anchor="start" x="159.75" y="-358.5" font-family="Helvetica,sans-Serif" font-size="10.00">mcp3421_interface_debug</text>
<text xml:space="preserve" text-anchor="middle" x="216.75" y="-346.5" font-family="Helvetica,sans-Serif" font-size="10.00">_print</text>
</a>
</g>
</g>
<!-- Node1&#45;&gt;Node4 -->
<g id="edge3_Node000001_Node000004" class="edge">
<title>Node1&#45;&gt;Node4</title>
<g id="a_edge3_Node000001_Node000004"><a xlink:title=" ">
<path fill="none" stroke="#63b8ff" d="M57.57,-234.19C69.41,-255.36 99.55,-304.38 138.25,-331 140.04,-332.23 141.9,-333.41 143.8,-334.52"/>
<polygon fill="#63b8ff" stroke="#63b8ff" points="141.85,-337.46 152.34,-338.97 145.09,-331.25 141.85,-337.46"/>
</a>
</g>
</g>
<!-- Node5 -->
<g id="Node000005" class="node">
<title>Node5</title>
<g id="a_Node000005"><a xlink:href="group__mcp3421__interface__driver.html#gad1922115c9ebdde0134657d21545de27" target="_top" xlink:title="interface delay ms">
<polygon fill="white" stroke="#666666" points="289.62,-322 143.88,-322 143.88,-302 289.62,-302 289.62,-322"/>
<text xml:space="preserve" text-anchor="middle" x="216.75" y="-308.5" font-family="Helvetica,sans-Serif" font-size="10.00">mcp3421_interface_delay_ms</text>
</a>
</g>
</g>
<!-- Node1&#45;&gt;Node5 -->
<g id="edge4_Node000001_Node000005" class="edge">
<title>Node1&#45;&gt;Node5</title>
<g id="a_edge4_Node000001_Node000005"><a xlink:title=" ">
<path fill="none" stroke="#63b8ff" d="M61.96,-234.35C76.97,-249.52 107.15,-277.67 138.25,-293 141.95,-294.82 145.83,-296.48 149.81,-297.98"/>
<polygon fill="#63b8ff" stroke="#63b8ff" points="148.47,-301.22 159.06,-301.12 150.72,-294.59 148.47,-301.22"/>
</a>
</g>
</g>
<!-- Node6 -->
<g id="Node000006" class="node">
<title>Node6</title>
<g id="a_Node000006"><a xlink:href="group__mcp3421__interface__driver.html#ga320975a06dc61a79e438f9ac25bd4d14" target="_top" xlink:title="interface iic bus deinit">
<polygon fill="white" stroke="#666666" points="273.5,-284 160,-284 160,-252 273.5,-252 273.5,-284"/>
<text xml:space="preserve" text-anchor="start" x="168" y="-270.5" font-family="Helvetica,sans-Serif" font-size="10.00">mcp3421_interface_iic</text>
<text xml:space="preserve" text-anchor="middle" x="216.75" y="-258.5" font-family="Helvetica,sans-Serif" font-size="10.00">_deinit</text>
</a>
</g>
</g>
<!-- Node1&#45;&gt;Node6 -->
<g id="edge5_Node000001_Node000006" class="edge">
<title>Node1&#45;&gt;Node6</title>
<g id="a_edge5_Node000001_Node000006"><a xlink:title=" ">
<path fill="none" stroke="#63b8ff" d="M90.9,-234.43C108.12,-239.06 128.91,-244.65 148.53,-249.92"/>
<polygon fill="#63b8ff" stroke="#63b8ff" points="147.57,-253.29 158.13,-252.51 149.39,-246.53 147.57,-253.29"/>
</a>
</g>
</g>
<!-- Node7 -->
<g id="Node000007" class="node">
<title>Node7</title>
<g id="a_Node000007"><a xlink:href="group__mcp3421__interface__driver.html#ga7c90e1328b4b1dfd16c0eb80b08873de" target="_top" xlink:title="interface iic bus init">
<polygon fill="white" stroke="#666666" points="282.5,-234 151,-234 151,-214 282.5,-214 282.5,-234"/>
<text xml:space="preserve" text-anchor="middle" x="216.75" y="-220.5" font-family="Helvetica,sans-Serif" font-size="10.00">mcp3421_interface_iic_init</text>
</a>
</g>
</g>
<!-- Node1&#45;&gt;Node7 -->
<g id="edge6_Node000001_Node000007" class="edge">
<title>Node1&#45;&gt;Node7</title>
<g id="a_edge6_Node000001_Node000007"><a xlink:title=" ">
<path fill="none" stroke="#63b8ff" d="M102.55,-224C114.2,-224 126.85,-224 139.33,-224"/>
<polygon fill="#63b8ff" stroke="#63b8ff" points="139.19,-227.5 149.19,-224 139.19,-220.5 139.19,-227.5"/>
</a>
</g>
</g>
<!-- Node8 -->
<g id="Node000008" class="node">
<title>Node8</title>
<g id="a_Node000008"><a xlink:href="group__mcp3421__interface__driver.html#gacface50590e569b4dab7f37c00cbc053" target="_top" xlink:title="interface iic bus read command">
<polygon fill="white" stroke="#666666" points="273.5,-196 160,-196 160,-164 273.5,-164 273.5,-196"/>
<text xml:space="preserve" text-anchor="start" x="168" y="-182.5" font-family="Helvetica,sans-Serif" font-size="10.00">mcp3421_interface_iic</text>
<text xml:space="preserve" text-anchor="middle" x="216.75" y="-170.5" font-family="Helvetica,sans-Serif" font-size="10.00">_read_cmd</text>
</a>
</g>
</g>
<!-- Node1&#45;&gt;Node8 -->
<g id="edge7_Node000001_Node000008" class="edge">
<title>Node1&#45;&gt;Node8</title>
<g id="a_edge7_Node000001_Node000008"><a xlink:title=" ">
<path fill="none" stroke="#63b8ff" d="M90.9,-213.57C108.12,-208.94 128.91,-203.35 148.53,-198.08"/>
<polygon fill="#63b8ff" stroke="#63b8ff" points="149.39,-201.47 158.13,-195.49 147.57,-194.71 149.39,-201.47"/>
</a>
</g>
</g>
<!-- Node9 -->
<g id="Node000009" class="node">
<title>Node9</title>
<g id="a_Node000009"><a xlink:href="group__mcp3421__interface__driver.html#ga7ed51ff8921c4f1a2c498c53d7ebdae4" target="_top" xlink:title="interface iic bus write command">
<polygon fill="white" stroke="#666666" points="273.5,-146 160,-146 160,-114 273.5,-114 273.5,-146"/>
<text xml:space="preserve" text-anchor="start" x="168" y="-132.5" font-family="Helvetica,sans-Serif" font-size="10.00">mcp3421_interface_iic</text>
<text xml:space="preserve" text-anchor="middle" x="216.75" y="-120.5" font-family="Helvetica,sans-Serif" font-size="10.00">_write_cmd</text>
</a>
</g>
</g>
<!-- Node1&#45;&gt;Node9 -->
<g id="edge8_Node000001_Node000009" class="edge">
<title>Node1&#45;&gt;Node9</title>
<g id="a_edge8_Node000001_Node000009"><a xlink:title=" ">
<path fill="none" stroke="#63b8ff" d="M62.36,-213.69C77.64,-198.82 107.88,-171.34 138.25,-155 141.72,-153.13 145.35,-151.38 149.06,-149.73"/>
<polygon fill="#63b8ff" stroke="#63b8ff" points="150.37,-152.98 158.3,-145.95 147.72,-146.5 150.37,-152.98"/>
</a>
</g>
</g>
<!-- Node10 -->
<g id="Node000010" class="node">
<title>Node10</title>
<g id="a_Node000010"><a xlink:href="group__mcp3421__base__driver.html#ga11b5d95c04a3bce73d57e2e2f8f4797b" target="_top" xlink:title="set the adc bit">
<polygon fill="white" stroke="#666666" points="272.38,-96 161.12,-96 161.12,-76 272.38,-76 272.38,-96"/>
<text xml:space="preserve" text-anchor="middle" x="216.75" y="-82.5" font-family="Helvetica,sans-Serif" font-size="10.00">mcp3421_set_adc_bit</text>
</a>
</g>
</g>
<!-- Node1&#45;&gt;Node10 -->
<g id="edge9_Node000001_Node000010" class="edge">
<title>Node1&#45;&gt;Node10</title>
<g id="a_edge9_Node000001_Node000010"><a xlink:title=" ">
<path fill="none" stroke="#63b8ff" d="M56.45,-213.84C66.88,-190.66 95.72,-133.62 138.25,-105 141.96,-102.5 145.96,-100.34 150.13,-98.45"/>
<polygon fill="#63b8ff" stroke="#63b8ff" points="151.28,-101.76 159.34,-94.88 148.75,-95.23 151.28,-101.76"/>
</a>
</g>
</g>
<!-- Node11 -->
<g id="Node000011" class="node">
<title>Node11</title>
<g id="a_Node000011"><a xlink:href="group__mcp3421__base__driver.html#ga0920dbacf30432d4239b5de9cbe3a211" target="_top" xlink:title="set the adc pga">
<polygon fill="white" stroke="#666666" points="264.5,-58 169,-58 169,-38 264.5,-38 264.5,-58"/>
<text xml:space="preserve" text-anchor="middle" x="216.75" y="-44.5" font-family="Helvetica,sans-Serif" font-size="10.00">mcp3421_set_pga</text>
</a>
</g>
</g>
<!-- Node1&#45;&gt;Node11 -->
<g id="edge10_Node000001_Node000011" class="edge">
<title>Node1&#45;&gt;Node11</title>
<g id="a_edge10_Node000001_Node000011"><a xlink:title=" ">
<path fill="none" stroke="#63b8ff" d="M54.66,-213.66C62.16,-185.41 86.96,-106.38 138.25,-67 144.16,-62.47 151,-59 158.12,-56.35"/>
<polygon fill="#63b8ff" stroke="#63b8ff" points="158.76,-59.82 167.25,-53.48 156.66,-53.14 158.76,-59.82"/>
</a>
</g>
</g>
<!-- Node12 -->
<g id="Node000012" class="node">
<title>Node12</title>
<g id="a_Node000012"><a xlink:href="group__mcp3421__base__driver.html#ga157160793330ef5ef42db5f4d5f44b35" target="_top" xlink:title="start the chip reading">
<polygon fill="white" stroke="#666666" points="295.25,-20 138.25,-20 138.25,0 295.25,0 295.25,-20"/>
<text xml:space="preserve" text-anchor="middle" x="216.75" y="-6.5" font-family="Helvetica,sans-Serif" font-size="10.00">mcp3421_start_continuous_read</text>
</a>
</g>
</g>
<!-- Node1&#45;&gt;Node12 -->
<g id="edge11_Node000001_Node000012" class="edge">
<title>Node1&#45;&gt;Node12</title>
<g id="a_edge11_Node000001_Node000012"><a xlink:title=" ">
<path fill="none" stroke="#63b8ff" d="M53.49,-213.63C58.33,-181.01 77.84,-79.64 138.25,-29 139.54,-27.92 140.89,-26.89 142.28,-25.92"/>
<polygon fill="#63b8ff" stroke="#63b8ff" points="143.78,-29.1 150.71,-21.08 140.3,-23.03 143.78,-29.1"/>
</a>
</g>
</g>
</g>
</svg>
